<svg id="PATTERN" xmlns="http://www.w3.org/2000/svg" viewBox="0 0 1008.17 1008.17"><path d="M519,428.17c-.69,8.77-1.43,17.53-1.82,26.32-.13,2.92-1.34,8.06.19,10.84,2,3.67,9.08,5.94,12.66,8q25.39,14.81,50.87,29.5c34,19.62,68.09,39.06,102,58.76s68.07,39.13,102,58.84c26,15.08,71.74,35.1,55.08,73.5-7.44,17.14-23.39,22.28-40.74,22.34-19.74.06-39.48,0-59.22,0l-122.39,0H248.51c-29.31,0-76.66,8.53-83.36-31.29a39.33,39.33,0,0,1,14.34-37.4c14.63-11.42,32.18-20.35,48.19-29.71q51.33-30,102.85-59.7c34.27-19.78,68.63-39.41,102.9-59.18C451,488.89,469,479.2,486.28,468.51c7.62-4.72,5.76-12.15,6.3-20.67.61-9.66-.23-20.65,2.06-30.08,3.2-13.21,22.45-12.9,32.47-19.19,13.09-8.2,22-23.16,22-38.76,0-31.64-34.75-53-63.1-40.56-12.9,5.68-22.23,16.35-24.89,30.28-1.75,9.11-2.6,35.54-20,24.26-12.44-8.06-4.43-32.31.21-42.85a65.06,65.06,0,0,1,25.4-29.5c28.63-17.52,64.31-12.26,87.52,11.7,21.82,22.53,25.41,58.26,7.66,84.24a77.84,77.84,0,0,1-38,29.35C522.44,427.28,520.86,427.64,519,428.17ZM504.11,692.11H744.33l40.08,0c8.89,0,24.33,3.29,31.17-3.92,15.11-15.94-16.69-29.59-26.54-35.41q-31-18.3-62-36.53c-39.86-23.37-79.93-46.4-120-69.46Q577,529.41,546.86,512.13q-15.06-8.67-30.08-17.42c-11.23-6.56-14.5-6.59-25.72.05-39.28,23.21-79.14,45.51-118.67,68.29C332.65,586,292.66,608.5,253.32,632.1q-16.08,9.64-32.1,19.41c-8.71,5.32-19.24,10.15-26.91,16.87-6.09,5.35-7,14.73-.55,20.33,6.07,5.3,16.82,3.38,24.15,3.38Q361,692.11,504.11,692.11Z"/></svg>