<svg id="PATTERN" xmlns="http://www.w3.org/2000/svg" viewBox="0 0 1008.17 1008.17"><defs><style>.cls-1{fill:#828282;}</style></defs><path class="cls-1" d="M700,649.73c0,39.53,4,79.21,7,118.6.84,10.76,1.82,21.51,2.61,32.27.69,9.44,2.75,20.09,2,29.5-1.5,18.41-24.82,17.89-38.43,20.16-20.71,3.45-41.54,6.38-62.37,9.08-16.39,2.12-37.4,7.19-53.11-.14-15.08-7-22.9-26.91-30.3-40.75q-6.78-12.71-12.73-25.82c-3.73-8.26-6.32-17.75-11-25.46-7,19.14-16.71,36.61-26.46,54.53-7.18,13.21-14.7,32.59-29.76,38.42-15.89,6.15-37.72,1.5-54.08-.64-19.51-2.54-39-5.72-58.37-8.9-14.49-2.37-37-2.29-37.67-21.42-.67-19.3,2.84-39.56,4.48-58.79,3.41-39.89,6.3-79.78,6.3-119.83-5.31,37.64-10.6,75.3-16.09,112.91-2,13.45-2.55,29.46-17.59,34.69-14.76,5.13-36.36-1.28-51.5-3-8.86-1-17.72-2.07-26.58-3-7.74-.83-17.08-.66-23.52-5.6-13.18-10.13-7.52-32.15-6.15-46.32,3.53-36.67,8.25-73.3,12.78-109.86,9.24-74.59,18.83-148.9,32.89-222.77,6.83-35.87,12.95-72.41,23.18-107.51,10.13-34.75,29-58.22,62.41-72.53q23.44-10,47.11-19.57c16.21-6.55,35.58-10.93,47.36-24.27,10.08-11.44,21.34-30.4,36.25-35.32,16.21-5.35,36-2.69,52.78-2.71q27.42,0,54.85,0c15,0,37.72-3.61,50.49,5.82,13.89,10.25,22.15,27.23,35.36,38.29,12.55,10.52,32.16,14.15,47.16,20.1,28.44,11.29,64.49,22.24,84.17,47.1,21.13,26.7,25.51,65.55,32.41,97.87,15.88,74.33,27.28,149.41,37.29,224.72,5,37.23,8.72,74.56,13.1,111.85,2.21,18.78,4.39,37.56,6.09,56.39,1.2,13.25,5.38,29.58-7.42,38.57-12.2,8.57-33.7,6.86-48,8.51-15.8,1.82-36,8.91-51.47,3-17.75-6.78-16.77-24.61-19.12-40.73q-4-27.55-7.95-55.11c-1.25-8.75-2.46-17.5-3.68-26.24-1.15-8.31-1.17-18.31-4-26.18ZM818.49,766.37c0-2.1.13-3.55,0-5q-7-68.52-14.49-137c-8.82-81.54-21.93-162.35-38.69-242.61-4.15-19.91-8.35-39.81-12.9-59.63-3.79-16.49-6-35-16.44-48.89-10.08-13.45-26.54-19.87-41.36-26.66-18-8.25-36.66-15.09-55.07-22.42,3.86,10.59,9.1,26.31.91,36.24-5.35,6.5-25.75,9.43-24.57,17.49.89,6.07,9.09,10.89,13,14.83,4.63,4.67,4.06,9.27,2.54,15.49-3.28,13.36-13,26.8-19.57,38.82-27.32,50-58.4,98-87.86,146.78-7,11.62-15.67,23.64-18.7,37.09-2.63,11.68-1.43,24.37-1.49,36.26q-.24,42.69-.13,85.38c0,14-.68,28.25,1.11,42.14,1.71,13.32,6.41,25.3,11.59,37.58,10.21,24.19,19.41,49,32,72.07q5.34,9.75,11.35,19.09c2.4,3.73,6.17,11.78,10.06,14.19s10.57.4,15.05-.07c6-.62,12-1.18,18-1.8,27.82-2.84,55.39-8.17,83-12.26,0-33.16-4-66.48-6.84-99.5-2.76-32.13-3.63-64.5-5-96.72-2.45-59.81-.24-119.65,1.83-179.44.33-9.73-3.38-28.89,8.16-32.94,10.44-3.67,17.27,4.18,18.06,13.56,2.44,29.31,4.09,58.7,7,88C715,574.82,723.37,633,732,690.94q3.13,21.15,6.24,42.3,1.71,11.68,3.39,23.37c.47,3.27.19,13,2.43,15.3,2.94,3,8.16,1.27,12.06.9l22.94-2.2C792.2,769.35,805.35,768,818.49,766.37ZM368.64,224.49a18,18,0,0,0-2.2.55c-17.08,6.76-33.89,13.73-50.51,21.57-14,6.6-30.35,12.44-40.9,24.31s-13.63,30-17.55,44.87c-9.54,36.14-15.93,73.3-23,110-14.2,73.7-24.36,148.06-32.44,222.67q-3.07,28.35-6,56.7c-1.91,18.37-6.16,37.69-6.26,56.12-.05,9.14,10.51,6.5,18.19,7.24,9.14.88,18.27,1.8,27.4,2.7,5.56.55,21.93,4.86,26.94,2.23,4.32-2.27,3.46-8.76,4.14-13.4,10.74-73.32,23.3-146.53,31-220.26q3-28.21,5.55-56.47c1.73-18.67,1.38-37.7,3.56-56.29,1.29-11,17.42-19.84,24.08-7.43,3.43,6.4,1.55,16.74,1.79,23.76q.49,14.11,1,28.24c2.7,76.17,1.57,152.17-1.79,228.3-1.62,36.76-5.78,73.21-8.35,109.9-.21,3.08-2,10.43,0,13s7.82,2.27,10.65,2.72c8.14,1.29,16.3,2.51,24.45,3.71,18.63,2.73,37.26,5.76,56,7.8,8,.88,19.23,4.38,25.48-1.48,5.07-4.75,8.5-12.62,12-18.56a443.07,443.07,0,0,0,24.88-49.09c3.64-8.41,7.25-16.93,10.23-25.61s.61-14.75-1.67-23.24c-4.91-18.35-6.18-36.51-6.26-55.42q-.23-57.43.07-114.87c.06-9.3.07-18.58,1.61-27.78,1.2-7.22,6.55-16.27,6.06-23.38-.55-7.9-9.08-17.36-13.11-24q-7.06-11.64-14.17-23.26c-19.62-32.16-39.06-64.42-57.93-97-8.74-15.1-21.12-31.27-25.19-48.46-1.61-6.79.54-8.78,5.43-13.1,5.8-5.11,9.16-10.42,11.88-17.69-8.55-3.79-22-7-27.14-15.7C360.52,248.21,366.12,234.8,368.64,224.49Zm193.82-54.25H559.2q-48.63.1-97.27,0c-4.06,0-13.8-2.11-16.62,1.57-2.35,3.06,3,15.66,3.84,19.44q5.43,23.42,10.89,46.82c7.36,31.67,14.67,63.36,21.55,95.15,6.46,29.85,14.91,59.22,21.37,89l1.48.13C526.81,339.21,543.16,254.6,562.46,170.24ZM527.77,434.36l1.26.47c14.44-23.58,30.08-46.38,44-70.27a391,391,0,0,0,19.79-37.64c2.67-6,7.53-13.87,8.23-20.4.58-5.32-2.11-7.37-4.82-11.61-5.45-8.52-10.82-20.45-6.48-30.37a23.92,23.92,0,0,1,10-10.88c5-3,13-4.21,17.27-7.94,6.66-5.77-4-22.85-7.85-29.05-6.56-10.48-14.77-20-22.32-29.79l-1.36.18Q557.8,311.05,527.77,434.36ZM421.83,186.71l-.95-.06c-.91,1.36-1.81,2.74-2.74,4.09-7.29,10.59-14.95,21-21.72,31.88-3.28,5.29-4.92,11.62-7.23,17.5-.86,2.21-.28,3.83,2.06,4.92,6,2.76,11.89,5.71,17.83,8.56,5.26,2.52,9,6.42,10.58,12.09,3.59,12.89-1.21,23.54-9.4,33-1.79,2.07-2.9,3.76-1.85,6.34,5.34,13.2,9.61,27,16.31,39.47,10.5,19.59,22.53,38.36,34.12,57.36,5.8,9.51,12,18.76,18.28,28.43.48-.76,1.22-1.4,1.11-1.84Q450.09,307.58,421.83,186.71Z"/><path class="cls-1" d="M614.87,450.07c-10.37,0-42.36,5.59-39.64-14,1.23-8.79,8.77-9.85,15.86-10.05,9.78-.27,19.6-.07,29.38-.06,9.22,0,40.87-4.22,35.1,15.25-4.18,14.13-30,8.94-40.7,8.94Z"/><path class="cls-1" d="M518.07,594.55c-1.73-21.36,27.68-28.79,40.44-14.19,13.56,15.52.28,37-18.45,36.64C526.7,616.73,517.52,608.87,518.07,594.55Z"/></svg>