<svg id="PATTERN" xmlns="http://www.w3.org/2000/svg" viewBox="0 0 1008.17 1008.17"><defs><style>.cls-1{fill:#828282;}</style></defs><path class="cls-1" d="M500,908.69c-44.46-1.07-88-3-131.85-10.68a1072.71,1072.71,0,0,1-127-30.47c-7.1-2.16-17.95-4.39-22.91-10.49-5.79-7.1-.79-17,1.44-24.66,6.36-21.72,13.09-43.35,20-64.92C253.27,724.68,267.88,682.2,283.1,640c29.65-82.32,63.78-162.33,104.9-239.61,10.29-19.35,1.15-40.95-4.27-60.64C378,319,371,298.64,364.88,278c-2.58-8.73-7.59-19-3.73-27.88,3.65-8.39,10.22-16.56,15.26-24.17,11.84-17.86,15.12-36.48,15.18-57.55q0-16,0-32c0-8.82-2.87-23.63,2.33-31.47,3.64-5.49,12.18-7,17.75-3.8,8.69,5,7.12,17.59,7.13,26,0,20.19-3.45,44.13,2.19,63.62,2.82,9.73,11.61,13.29,20.12,18.09a174.29,174.29,0,0,0,28.21,12.9c19.8,6.91,40.19,8.95,60.53,3,9.34-2.74,18.1-7.08,26.64-11.7,4.59-2.48,9.12-5.08,13.65-7.67,4-2.27,10.84-4.55,13.59-8.12,6-7.84,4.77-21.9,4.86-31.07.11-11.5,0-23,0-34.48,0-8.52-2.17-20.41,3.59-27.56,5-6.18,15.21-6.22,20.31-.07,5.25,6.33,2.87,18.24,2.86,25.75,0,11.91-.06,23.81,0,35.72.05,10.2-.39,20.52,2.05,30.5,2.35,9.6,7.23,18.1,12.26,26.52,5.15,8.61,12.39,17,16.44,26.13,4.24,9.57-1.33,20.29-4.22,29.5-6.76,21.53-12.48,43.25-17.67,65.21-2.44,10.29-4.79,20.59-7.12,30.9-2.63,11.62-1.42,18.11,4.19,28.58,10.45,19.5,20.91,39,30.89,58.73a1235.87,1235.87,0,0,1,52.66,120.89c15.57,41.22,29.88,82.94,44,124.66,14.48,42.7,29.39,85.62,41.33,129.11,2.13,7.76,5.21,17.81-2.68,23-8.7,5.68-20.58,8.57-30.42,11.51-21.41,6.41-43,12.34-64.79,17.17a888.51,888.51,0,0,1-128.9,18.75c-21.18,1.52-42.24,1.51-63.46,1.51Zm-255.68-67a28.26,28.26,0,0,0,2.79,1.27c21.14,5.87,42.22,12,63.44,17.52,13.58,3.55,27.28,6.77,41.08,9.34,15,2.81,30.32,4.34,45.37,7.09,19.2,3.51,38.56,6,58,6.28,42,.72,84.17,2.17,126.1-2.52,18-2,35.9-4.74,53.75-7.71,17.27-2.88,34.58-5.8,51.58-9.93,24.23-5.89,48.18-12.9,72.25-19.41,3-.81,3.37-2.47,2.51-5.3-3-9.81-5.57-19.73-8.53-29.55-7.14-23.67-13.9-47.48-21.74-70.93-12.23-36.57-25.15-72.92-37.93-109.3-23-65.57-50.2-129.33-83.44-190.42-5.61-10.3-11.1-20.68-17-30.78-2.51-4.25-6.1-7.83-11.75-7.83q-75.78,0-151.54,0a23.53,23.53,0,0,0-5.94.84c-5.9,1.56-9.27,6.12-12,11.07q-9.54,17.31-18.65,34.86a1405.35,1405.35,0,0,0-67.26,152c-23.44,62.37-46,125.07-64.77,189.06C255.3,805.46,249.77,823.46,244.29,841.69ZM410.8,221.25c-7.16,11.59-14.29,23.34-21.68,34.91-3.85,6,2.66,17.85,4.54,23.92q3.72,12,7.4,24.07c5.06,16.55,9.93,33.16,14.87,49.75,1.55,5.2,2.43,13.39,6.42,17.43,3.69,3.74,9.67,2.88,14.42,2.88h48.54c31.19,0,62.39.29,93.58,0,14.73-.14,15.25-17.39,18.06-29.1,3.65-15.19,7.32-30.36,11.43-45.43q3.35-12.27,6.94-24.47c1.59-5.4,5.31-12.26,3.58-17.79-2.16-6.93-9-14.49-12.91-20.64l-10-16c-28,16.1-56.74,30.72-89.75,31.43C470.87,253,440.9,237.83,410.8,221.25Z"/></svg>